<svg xmlns="http://www.w3.org/2000/svg" xmlns:xlink="http://www.w3.org/1999/xlink" viewBox="0 0 594.65 768.6"><defs><clipPath id="clip-path"><path d="M224.76,444.5a12.82,12.82,0,0,1-12.47,9.85H196.82V420.76h23.52a8,8,0,0,1,7.94,7.95,8.28,8.28,0,0,1-.22,1.85Z" style="fill:none"/></clipPath></defs><title>mobility</title><g id="Layer_2" data-name="Layer 2"><g id="Laag_1" data-name="Laag 1"><polygon points="594.56 0.74 517.56 0.74 481.33 57.95 594.56 57.95 594.56 0.74" style="fill:#1f3668"/><polyline points="594.56 0.74 594.12 0.74 557.88 57.95 594.56 57.95" style="fill:#1465aa"/><line x1="541.37" y1="0.75" x2="505.14" y2="57.95" style="fill:none;stroke:#1465aa;stroke-linecap:round;stroke-linejoin:round;stroke-width:1.4900000095367432px"/><line x1="567.61" y1="0.75" x2="531.38" y2="57.95" style="fill:none;stroke:#1465aa;stroke-linecap:round;stroke-linejoin:round;stroke-width:1.4900000095367432px"/><line x1="499.3" y1="28.53" x2="593.91" y2="28.53" style="fill:none;stroke:#1465aa;stroke-linecap:round;stroke-linejoin:round;stroke-width:1.4900000095367432px"/><path d="M477,292.48l-134.73.36V54.46A45.16,45.16,0,0,1,387.43,9.3H477Z" style="fill:#83a9d0"/><path d="M425.92,82.44a23.88,23.88,0,0,1-23.86,23.87H342.21V58.57h59.85A23.87,23.87,0,0,1,425.92,82.44Z" style="fill:#1465aa"/><path d="M477,58H594.56V248.09H434.36V100.59A42.63,42.63,0,0,1,477,58Z" style="fill:#d1dce9"/><path d="M518,120.64a23.87,23.87,0,0,1-23.87,23.86H434.26V96.76h59.85A23.87,23.87,0,0,1,518,120.63Z" style="fill:#1465aa"/><path d="M594.56,81.09c-7.57.08-14.32,5.1-16.12,11.86a11,11,0,0,0,.39,9.24,10.49,10.49,0,0,1-.35,7.48c-2.86,6.88-8.07,4.89-10.91,11.78s2.36,8.88-.49,15.75S559,142.1,556.16,149s2.37,8.88-.49,15.77-8,4.9-10.9,11.79,2.36,8.87-.49,15.75c-2.28,5.51-6.07,5.35-8.95,8.58a11.05,11.05,0,0,0-3.59,10,10.38,10.38,0,0,0,1.09,3.35,11.69,11.69,0,0,1,.45,4.55c-.11.36-.24.73-.4,1.12h.2a11.56,11.56,0,0,1-.61,1.83c-2.85,6.88-8.06,4.89-10.9,11.78s2.36,8.88-.49,15.76c-1.74,4.19-4.35,5.1-6.77,6.71a22.6,22.6,0,0,0-8.61,17.67c0,12.71,10.73,23,24,23h64.86Z" style="fill:#83a9d0"/><path d="M402.18,123.26a12.33,12.33,0,0,0-22.77,0l-39.94,95.88A35.28,35.28,0,0,0,372,268h37.55a35.27,35.27,0,0,0,32.55-48.83Z" style="fill:#0a705d"/><path d="M402.18,123.26a12.33,12.33,0,0,0-22.77,0l-39.94,95.88A35.28,35.28,0,0,0,372,268h37.55a35.27,35.27,0,0,0,32.55-48.83Z" style="fill:#1f3668"/><path d="M195.59,50a23,23,0,0,1,0,46.07H119.76l14.63-34.39A56.91,56.91,0,0,1,141.07,50h54.52Z" style="fill:#1f3668"/><path d="M195.59,122a23,23,0,1,1,0,46.08H89.09L108.68,122Z" style="fill:#1f3668"/><path d="M195.59,194.09a23,23,0,1,1,0,46.08H58.44L78,194.09Z" style="fill:#1f3668"/><path d="M261.86,26.64V349.76H42.57a20.33,20.33,0,0,1-18.71-28.28l34.58-81.32H195c12.48,0,23.12-9.71,23.57-22.19a23,23,0,0,0-22.1-23.88c-.3,0-.6,0-.9,0H78l11.06-26H195c12.49,0,23.13-9.72,23.58-22.2A23,23,0,0,0,196.5,122c-.29,0-.59,0-.89,0H108.68l11-26H195c12.48,0,23.12-9.72,23.57-22.19A23,23,0,0,0,196.5,49.94c-.29,0-.59,0-.89,0H141a57.49,57.49,0,0,1,46.24-23.32Z" style="fill:#83a9d0"/><path d="M58.44,240.16,78,194.09l11.06-26L108.68,122l11-26,14.63-34.38A56.91,56.91,0,0,1,141,49.93h0a57.55,57.55,0,0,1,46.24-23.32h74.58V349.76H42.66A20.39,20.39,0,0,1,23.9,321.38Z" style="fill:#1f3668"/><path d="M352.82,200c-19-2.82-22.72-21-29.08-36.45-5.79-14.09-19-23.81-33.41-23.81-28.95,0-27.78,26.44-41.44,33.16-13.12,6.46-29.53-1-40.48,11.17-10.6,11.84-7.08,31.18-19.27,41.81-14.31,12.45-75,13.49-75,67.91A57.78,57.78,0,0,0,144.07,344a48.43,48.43,0,0,0,25.77,7.42H381.32c28.15,0,51-23.58,51-52.7h0c0-35-28.29-29.84-37.4-51.25-4.78-11.24-.66-23.5-9.54-33.71C376.16,203.2,364.17,202.56,352.82,200Z" style="fill:#1465aa"/><path d="M413.56,342.63A71.42,71.42,0,0,0,417,320.69c0-69.31-60.62-51.24-76.75-64.06-16.62-13.22-2.39-47.89-41.6-47.89-18,0-22.3,14.57-38.52,21.68-10.36,4.54-20.67-2.1-29,8.37-9.59,12.06-7.5,30.85-20.62,40.74-20.48,15.42-56.45,6.67-56.45,43.2,0,6.67,1.31,13.28,2.64,19.9Z" style="fill:#114b99"/><path d="M130.21,311.28c7.64-32,19-33.92,31-33.92h4.94c35.94,0,28.85-46.61,63.7-46.61,18.07,0,27.8,19.05,41,28.09,9.69,6.61,22.47,4,32.66,9.92,11.79,6.9,7.61,20,15.23,29s24.7,9.25,24.7,33.53a44.19,44.19,0,0,1-.53,6.61c-.4,2.65-.92,5.29-1.46,7.94H131.29a58.44,58.44,0,0,1-2.83-18A70.94,70.94,0,0,1,130.21,311.28Z" style="fill:#1f3668"/><circle cx="269.49" cy="56.1" r="54.48" style="fill:#f6ae1a"/><path d="M217,132.14a16.33,16.33,0,0,1,30.14,0L300,259a46.64,46.64,0,0,1-43.07,64.57H207.23A46.64,46.64,0,0,1,164.17,259Z" style="fill:#b5d9b5"/><path d="M233.06,122.14a16.35,16.35,0,0,1,14.08,10L300,259a46.65,46.65,0,0,1-43.07,64.58H233.06Z" style="fill:#0a705d"/><line x1="232.07" y1="161.33" x2="232.07" y2="342.19" style="fill:none;stroke:#1f3668;stroke-linecap:round;stroke-linejoin:round;stroke-width:1.4900000095367432px"/><line x1="187.36" y1="248.95" x2="232.07" y2="288.57" style="fill:none;stroke:#1f3668;stroke-linecap:round;stroke-linejoin:round;stroke-width:1.4900000095367432px"/><line x1="201.41" y1="214.79" x2="232.07" y2="241.97" style="fill:none;stroke:#1f3668;stroke-linecap:round;stroke-linejoin:round;stroke-width:1.4900000095367432px"/><line x1="215.9" y1="186.17" x2="232.07" y2="200.5" style="fill:none;stroke:#1f3668;stroke-linecap:round;stroke-linejoin:round;stroke-width:1.4900000095367432px"/><line x1="267.07" y1="228.35" x2="232.07" y2="259.35" style="fill:none;stroke:#1f3668;stroke-linecap:round;stroke-linejoin:round;stroke-width:1.4900000095367432px"/><line x1="281.99" y1="261.38" x2="232.07" y2="305.6" style="fill:none;stroke:#1f3668;stroke-linecap:round;stroke-linejoin:round;stroke-width:1.4900000095367432px"/><line x1="251.07" y1="198.56" x2="232.07" y2="215.38" style="fill:none;stroke:#1f3668;stroke-linecap:round;stroke-linejoin:round;stroke-width:1.4900000095367432px"/><path d="M555.72,563.13H11.8V409.38a66.29,66.29,0,0,1,66.33-66.25H555.72v220Z" style="fill:#83a9d0"/><path d="M468.21,326.09V226.16a12.59,12.59,0,0,1,12.6-12.59h93.27a12.59,12.59,0,0,1,12.59,12.58h0v105" style="fill:none;stroke:#1465aa;stroke-linecap:round;stroke-linejoin:round;stroke-width:1.4900000095367432px"/><path d="M317,307.94h5.61a7.72,7.72,0,0,1,7.11,4.77h9.22a16.61,16.61,0,0,0-16.33-13.62h-2.51A27.86,27.86,0,0,0,317,307.94Z" style="fill:#f6ae1a"/><path d="M318.5,323.31h0a31.53,31.53,0,0,0,5,8.88,16.65,16.65,0,0,0,15.43-13.66h-9.17a7.7,7.7,0,0,1-7.11,4.78Z" style="fill:#f6ae1a"/><path d="M403.2,205.7,325.45,292h52.74a14.36,14.36,0,0,1,12.06,6.57l10.85,16.81a14.36,14.36,0,0,0,12.06,6.57h181.4V205.7Z" style="fill:#1f3668"/><path d="M407.85,200.55l-4.65,5.15H594.56V184.14H444.76A49.7,49.7,0,0,0,407.85,200.55Z" style="fill:#ef5025"/><path d="M317,307.94a27.87,27.87,0,0,0-.38,4.65,31.39,31.39,0,0,0,1.88,10.72h4.11a7.7,7.7,0,0,0,7.11-4.78h9.22a16.65,16.65,0,0,1-15.43,13.66,31.3,31.3,0,0,0,24.41,11.7H594.56v-22H413.16a14.39,14.39,0,0,1-12.06-6.58L390.25,298.5a14.36,14.36,0,0,0-12.06-6.57H325.44l-1.59,1.77a27.37,27.37,0,0,0-3.76,5.3h2.51a16.62,16.62,0,0,1,16.33,13.67h-9.17a7.7,7.7,0,0,0-7.11-4.76Z" style="fill:#ef5025"/><rect x="11.52" y="577.51" width="583.05" height="182.76" style="fill:#1f3668"/><polygon points="594.54 751.57 11.52 751.57 11.52 768.6 594.56 768.6 594.54 751.57" style="fill:#d1dce9"/><rect x="11.52" y="563.13" width="583.05" height="38.81" style="fill:#f4762f"/><rect x="11.52" y="563.13" width="583.05" height="38.81" style="fill:#ef5025"/><path d="M438.25,282.92a24,24,0,0,1,44.22,0L560,469.09a68.45,68.45,0,0,1-63.18,94.77H423.9a68.43,68.43,0,0,1-63.14-94.77Z" style="fill:#f6ae1a"/><path d="M471.09,338.7h0a8.73,8.73,0,0,0,.67-2.61c.35-4.09-1.23-8-6.06-8.45a17.56,17.56,0,0,0-10.23,2.24,30.81,30.81,0,0,0-8.83,7.23c-6.79,8.1-9.08,19.5-9.56,33.26h29.24a28.05,28.05,0,0,1-.23-3.54c0-11.2,8.06-5.35,8.06-14.39,0-.23,0-.46,0-.68a5.72,5.72,0,0,0-2.28-4.22,6.07,6.07,0,0,0,1.59-4A6.46,6.46,0,0,0,471.09,338.7Z" style="fill:#ef5025"/><polygon points="442.06 307.99 442.06 318.74 444.59 318.74 480.69 318.74 483.47 318.74 483.47 307.99 480.08 307.99 444.72 307.99 442.06 307.99" style="fill:#83a9d0"/><polygon points="446.38 302.75 444.72 307.99 480.08 307.99 478.88 302.75 446.38 302.75" style="fill:#fff"/><path d="M451.35,555.93h0a7,7,0,0,0,7,7h62.84c.23-2.37.35-4.83.35-7.36v-1.36H451.6A5.82,5.82,0,0,0,451.35,555.93Z" style="fill:#1465aa"/><path d="M451.6,554.22h69.93a120.69,120.69,0,0,0-1.65-18.79H470.6l.48,2.19C463.41,542.23,453.3,548.24,451.6,554.22Z" style="fill:#fff"/><path d="M489.17,519.32H467.4c.94,5.44,2,10.84,3.2,16.1h49.28a115.83,115.83,0,0,0-3.9-16.1Z" style="fill:#1465aa"/><path d="M471.76,336.09a8.59,8.59,0,0,1-.67,2.6h0a6.44,6.44,0,0,1,2.34,4.82,6,6,0,0,1-1.59,4,5.76,5.76,0,0,1,2.28,4.22h1.64l5-33h-36.1l2,18.37h0a31,31,0,0,1,8.83-7.24,17.6,17.6,0,0,1,10.27-2.22C470.54,328.09,472.12,332,471.76,336.09Z" style="fill:#fff"/><path d="M491.1,290.73l-.62,3.24A27.38,27.38,0,0,0,500,290Z" style="fill:#1f3668"/><path d="M515.76,331.85v.38h.06Z" style="fill:#f6ae1a"/><path d="M529,346c1-4.79,1.85-9.42,2.36-13.76H504.31l-.64,4.1-2,13-11.55,73.77h37c-.13-2.09-.2-4.11-.2-6.09a87.55,87.55,0,0,1,1.47-16,36.6,36.6,0,0,1-3-8,53.81,53.81,0,0,1-1.5-13.08c0-9.42,2.14-19.76,4.2-29.67C528.42,348.81,528.76,347.38,529,346Z" style="fill:#fff"/><path d="M501.49,350.26c7.46-2.71,12.5-10,13.86-18" style="fill:none;stroke:#d1dce9;stroke-linecap:round;stroke-linejoin:round;stroke-width:1.4900000095367432px"/><path d="M515.84,331.85a26,26,0,0,0,12.15,19" style="fill:none;stroke:#d1dce9;stroke-linecap:round;stroke-linejoin:round;stroke-width:1.4900000095367432px"/><path d="M526.93,416.94c0,2,.07,4,.2,6.09,0,.48.07,1,.11,1.45a58.1,58.1,0,0,0,1,8,28.06,28.06,0,0,0,27.52,22.4h38.8a163.83,163.83,0,0,0-6.68-42.74,40.56,40.56,0,0,1-26,9.36A37.54,37.54,0,0,1,528.38,401,87.55,87.55,0,0,0,526.93,416.94Z" style="fill:#0a705d"/><path d="M562.25,505.47l-22.38,17.62c6.24,5,12.17,8.44,15.27,11.7l36.44-28.87a51.64,51.64,0,0,0-13.82-12.62l-15.5,12.17Z" style="fill:#1465aa"/><path d="M541,554.19a7.38,7.38,0,0,0-.32,2.23c0,6,3.38,6.72,7.58,7h30c10.47-5.42,12.91-15.16,16.25-23.08v-19c-10.47,8.15-5.45,31.77-29.09,32.87Z" style="fill:#1465aa"/><path d="M541,554.19h24.47c23.64-1.09,18.62-24.71,29.09-32.87,0-2.25-.11-11.77-3-15.46l-36.44,28.87a6.74,6.74,0,0,1,2.21,4.48v.07C557.27,545,543.33,546.57,541,554.19Z" style="fill:#fff"/><path d="M564.62,487.3c7.3-8.7,11-20,12.64-32.41h-21.5a28.08,28.08,0,0,1-27.48-22.44,58.49,58.49,0,0,1-1-8c0-.49-.08-1-.11-1.45h-37c-3,4.92-6.06,9.95-9.06,15.11-6.51,11.23-12.49,23.08-15.12,35.77-1,4.69-1.24,12.94-1.24,17.72a163.67,163.67,0,0,0,2.7,27.68H516a115.38,115.38,0,0,0-9.43-21.7,117.92,117.92,0,0,0,11.6-16.11c1.47,21.71,12,33.62,21.72,41.52l22.38-17.57h0l15.46-12.12A63.11,63.11,0,0,0,564.62,487.3Z" style="fill:#114b99"/><path d="M489.17,519.32H516a115.38,115.38,0,0,0-9.43-21.7,117.92,117.92,0,0,0,11.6-16.11h0Q518,479,518,476.23c0-5,1-21.41,2.19-32.25a14.11,14.11,0,0,0-3.42-.42c-5.24,0-11.3,4.88-11.3,12.15,0,1.76.21,3.54.21,5.37,0,10.64-8.85,12.39-13.5,18.89a12.71,12.71,0,0,0-2.32,7.72c0,7,6.29,9.87,6.29,17.06C496.12,510.86,491.35,512.78,489.17,519.32Z" style="fill:#1f3668"/><path d="M552.4,454.69c-3.41,6.32-12.52,6-12.52,15.42s11.94,7.06,11.94,14.89c0,3.58-4.5,5.92-4.5,9.68,0,8.42,9,2.19,14.93,10.79l15.51-12.17a63,63,0,0,0-13.13-6c7.3-8.7,11-20,12.64-32.41H555.76A28.86,28.86,0,0,1,552.4,454.69Z" style="fill:#1f3668"/><path d="M473.91,389.73c-2-3.57-3.54-6.26-4.78-9a32.79,32.79,0,0,1-2.68-9.47,8.85,8.85,0,0,0-.12-.88H437.09c-.07,2-.1,4.08-.1,6.19,0,1.37,0,2.77.08,4.16.93,23.89,9.94,49.12,31.49,56.06a31.33,31.33,0,0,0,9.85,1.47,26.07,26.07,0,0,0,2.65-.09c3-5.17,6.11-10.2,9.06-15.11l11.52-73.74,2-13C479,338.88,474.32,387.82,473.91,389.73Z" style="fill:#0a705d"/><path d="M522.22,314.26a6.42,6.42,0,0,1,.13-1.37h0l-1.68-.42a4.74,4.74,0,0,1-3.43-5.74L526.56,270a4.74,4.74,0,0,1,3.31-3.39l-.06-.24c-.29-.73-.55-1.5-.79-2.26a36,36,0,0,1-1.78-11,1,1,0,0,1,0-.24,30.37,30.37,0,0,1,1.71-9.94H509.58c.51.19,1,.41,1.5.65a17.7,17.7,0,0,0-2.11-.65H497.11a15.38,15.38,0,0,0-5.4,8.41,30.79,30.79,0,0,0-1,8.15c0,1.46.08,3,.21,4.65h0c.27,3.46.78,7.14,1.26,10.39-4.23.12-6.33,2.52-6.33,5.33s2,5.48,6.14,5.95c-.28,1.55-.6,3.21-.94,4.95l8.87-.69a27.76,27.76,0,0,1-9.49,3.93,89.79,89.79,0,0,0-1.9,16.18c0,7.1,1.7,13.29,7.27,16.26a18.66,18.66,0,0,0,8.63,2.15h.41l-.58,3.67h11.5v0h15.6c.15-1.25.27-2.48.35-3.67s.13-2.4.13-3.54C531.84,315.57,522.22,320.09,522.22,314.26Z" style="fill:#ef5025"/><path d="M563.76,336.09c-.69-2.55-1.4-5.06-2.15-7.52H531.76c-.08,1.19-.2,2.43-.35,3.68-.51,4.32-1.39,9-2.36,13.76-.29,1.4-.58,2.82-.88,4.25-2.06,9.9-4.2,20.24-4.2,29.67a53.78,53.78,0,0,0,1.5,13.07,36.6,36.6,0,0,0,3,8A37.58,37.58,0,0,0,562,421.54a40.67,40.67,0,0,0,26-9.36,42.19,42.19,0,0,0,6.59-7.09V351.48A39.14,39.14,0,0,0,563.76,336.09Z" style="fill:#0a705d"/><path d="M526.93,416.94c0,2,.07,4,.2,6.09,0,.48.07,1,.11,1.45a58.1,58.1,0,0,0,1,8,28.06,28.06,0,0,0,27.52,22.4h38.8a163.83,163.83,0,0,0-6.68-42.74,40.56,40.56,0,0,1-26,9.36A37.54,37.54,0,0,1,528.38,401,87.55,87.55,0,0,0,526.93,416.94Z" style="fill:#1f3668"/><path d="M563.81,336.09c1.84,16.51,12.77,56.35,29.87,56.35a6.46,6.46,0,0,0,.88,0v-40.9A39.13,39.13,0,0,0,563.81,336.09Z" style="fill:#1f3668"/><path d="M460.4,353.6a8.6,8.6,0,0,1,8.32-7.12,6.75,6.75,0,0,1,4.59,1.7" style="fill:none;stroke:#fff;stroke-linecap:round;stroke-linejoin:round;stroke-width:1.4900000095367432px"/><path d="M458.76,343.72c1.6-4.22,5-6.34,8.35-6.34a8.83,8.83,0,0,1,7.88,5.26" style="fill:none;stroke:#fff;stroke-linecap:round;stroke-linejoin:round;stroke-width:1.4900000095367432px"/><circle cx="498.75" cy="264.29" r="1.86" style="fill:#1f3668"/><circle cx="498.91" cy="264.13" r="10.65" style="fill:none;stroke:#1f3668;stroke-linecap:round;stroke-linejoin:round;stroke-width:1.4900000095367432px"/><line x1="509.39" y1="264.51" x2="537.71" y2="264.51" style="fill:none;stroke:#1f3668;stroke-linecap:round;stroke-linejoin:round;stroke-width:1.4900000095367432px"/><path d="M501.06,285.69a5.24,5.24,0,0,0-1.31,3.69,7.16,7.16,0,0,0,2.2,5.26" style="fill:none;stroke:#1f3668;stroke-linecap:round;stroke-linejoin:round;stroke-width:1.4900000095367432px"/><path d="M580,251c-3.46-4.94-7.58-9.94-13-13.08a4.45,4.45,0,0,0-.4-8.85,33.73,33.73,0,0,0-13.65,2,30.82,30.82,0,0,1,5.94-10.8,4.45,4.45,0,0,0-6.77-5.79,39.87,39.87,0,0,0-6.8,11.4,19.21,19.21,0,0,1-2.49-9,14.5,14.5,0,0,1,.38-3.34,4.46,4.46,0,0,0-8.38-2.9A28.92,28.92,0,0,0,532,223v1.61c-3.85-3.48-8-5.25-12.41-5.25s-9.08,1.85-13.72,5.64a11.37,11.37,0,0,1-2.13-4,4.45,4.45,0,1,0-8.52,2.59,20.13,20.13,0,0,0,3.11,6.19,16.85,16.85,0,0,1-7.43-3.8,4.46,4.46,0,0,0-6.36,6.25l.25.24a24.58,24.58,0,0,0,8.92,5.23,35.89,35.89,0,0,0-8.43,5.15,4.46,4.46,0,0,0,5.63,6.91,30.28,30.28,0,0,1,16.75-6.49c-.54.14-1.08.29-1.61.39a4.46,4.46,0,0,0,.85,8.83,6.25,6.25,0,0,0,.86-.08,37.35,37.35,0,0,0,14.84-6.77,25.07,25.07,0,0,0-1.44,4.31,4.44,4.44,0,0,0,3.53,5.17h0a22.7,22.7,0,0,1-6.1,11.1,4.45,4.45,0,0,0,.06,6.3,4.4,4.4,0,0,0,5.7.43,52.6,52.6,0,0,0-.35,5.89c0,15.93,9.74,21.61,18.85,21.61a23.16,23.16,0,0,0,15-5.4,35.72,35.72,0,0,0,13.42-28.24,43.39,43.39,0,0,0-3-16.33,57.91,57.91,0,0,1,4.48,5.63A4.46,4.46,0,0,0,580,251Z" style="fill:#1465aa"/><path d="M517.23,306.73a4.74,4.74,0,0,0,3.43,5.74l1.68.42h0a5.5,5.5,0,0,1,2.77-4,6.91,6.91,0,0,1-1.61-4.23c0-2.8,2.16-5,5.28-5.4h0v-.57c0-3.27,3-6,6.8-6,5,0,9.27,2.76,13,7.41l2.22-8.77L554.43,277a4.76,4.76,0,0,0-3.43-5.75l-18.69-4.74a4.59,4.59,0,0,0-2.44,0,4.74,4.74,0,0,0-3.31,3.39Z" style="fill:#1f3668"/><path d="M525.12,308.86a5.5,5.5,0,0,0-2.77,4,6.42,6.42,0,0,0-.13,1.37c0,5.86,9.62,1.31,9.62,10.75,0,1.15-.05,2.33-.13,3.55h29.85a146.89,146.89,0,0,0-5.44-15.24c-.56-1.31-1.14-2.57-1.73-3.79a51.47,51.47,0,0,0-5.82-9.47c-3.74-4.65-8-7.41-13-7.41-3.76,0-6.8,2.72-6.8,6v.57h0c-3.12.38-5.28,2.61-5.28,5.4A7,7,0,0,0,525.12,308.86Z" style="fill:#ef5025"/><path d="M550.76,291.29l-2.19,8.8a50.81,50.81,0,0,1,5.82,9.47c1.74-5.05,4.25-9.11,4.25-13.72,0-3.61-2.13-5.55-4.71-5.55A5.67,5.67,0,0,0,550.76,291.29Z" style="fill:#ef5025"/><path d="M524.66,308.22a6,6,0,0,1,2.22-.43c2.94,0,6.15,2,8.39,5.38" style="fill:none;stroke:#1f3668;stroke-linecap:round;stroke-linejoin:round;stroke-width:1.4900000095367432px"/><path d="M540,306.67c-2.23-4.79-6.46-8.14-10.74-8.14-2.6,0-5.22,1.23-7.42,4.13" style="fill:none;stroke:#1f3668;stroke-linecap:round;stroke-linejoin:round;stroke-width:1.4900000095367432px"/><path d="M547.55,297.7a21.75,21.75,0,0,1,3.06,5.36" style="fill:none;stroke:#1f3668;stroke-linecap:round;stroke-linejoin:round;stroke-width:1.4900000095367432px"/><path d="M515.9,236.25c-4.9,4-9.6,7.29-15.66,9.26" style="fill:none;stroke:#ef5025;stroke-linecap:round;stroke-linejoin:round;stroke-width:1.4900000095367432px"/><path d="M518.87,254.73c.88-8.66,7-14,14.92-16.45" style="fill:none;stroke:#ef5025;stroke-linecap:round;stroke-linejoin:round;stroke-width:1.4900000095367432px"/><path d="M594.56,611v102.1h-44.8V626.72A15.71,15.71,0,0,1,565.47,611h29.09Z" style="fill:#fff"/><path d="M594.56,738.43H590.2V738a13.07,13.07,0,1,0-26.14,0h0v.34a15.73,15.73,0,0,1-14.3-15.67v-9.61h44.8Z" style="fill:#1465aa"/><path d="M590.21,738v.4a13.07,13.07,0,0,1-26.13-.07V738a13.07,13.07,0,0,1,26.14,0h0Z" style="fill:#f6ae1a"/><path d="M535.89,707.09v16.83A13.7,13.7,0,0,1,522.2,737.6h-4.29v-9.19a15.32,15.32,0,0,0-15.31-15.32H467.26v-91.5h18v55.53a14.79,14.79,0,0,0,9.5,13.86l41,15.44Z" style="fill:#fff"/><path d="M521.58,636.75l14.18,69.67-41-15.44a14.76,14.76,0,0,1-9.56-13.84V621.61H503A18.93,18.93,0,0,1,521.58,636.75Z" style="fill:#1465aa"/><path d="M517.91,728.43v9.19h-13a13.07,13.07,0,0,0-26.12,0H467.26V713.09H502.6a15.31,15.31,0,0,1,15.31,15.32Z" style="fill:#1f3668"/><path d="M504.89,737.62V738a13.07,13.07,0,0,1-26.14,0v-.41a13.07,13.07,0,0,1,26.12,0Z" style="fill:#83a9d0"/><path d="M467.26,713.09V737.6H409.67v-9.19a15.31,15.31,0,0,0-15.32-15.32h-72.5V655a33.4,33.4,0,0,1,33.4-33.4h112Z" style="fill:#0a705d"/><path d="M409.67,728.43v9.19h-6.91a13.07,13.07,0,0,0-26.13,0H370a13.07,13.07,0,0,0-26.12,0h-2.12a19.9,19.9,0,0,1-19.89-19.9v-4.63h72.5a15.31,15.31,0,0,1,15.3,15.33Z" style="fill:#fff"/><path d="M402.76,737.62V738a13.08,13.08,0,0,1-26.15,0v-.41a13.07,13.07,0,0,1,26.13,0Z" style="fill:#83a9d0"/><path d="M370,737.62V738a13.07,13.07,0,0,1-26.14,0v-.41a13.07,13.07,0,0,1,26.12,0Z" style="fill:#83a9d0"/><path d="M297.34,706.43v16.28a15.74,15.74,0,0,1-15.73,15.73h-8.3V738a13.07,13.07,0,1,0-26.14,0h0v.41H221.36V626.38h16.75v64.06a15.31,15.31,0,0,0,15.32,15.32h43.72Z" style="fill:#fff"/><path d="M275.85,637.76l21.3,68H253.43a15.31,15.31,0,0,1-15.32-15.32h0V626.38h22.65A15.73,15.73,0,0,1,275.85,637.76Z" style="fill:#1465aa"/><path d="M260.24,725A13.08,13.08,0,0,0,247.17,738h0v.4a13.07,13.07,0,0,0,26.13,0V738A13.08,13.08,0,0,0,260.24,725Z" style="fill:#f6ae1a"/><path d="M221.36,628.84V738.43h-10.6v-10a15.31,15.31,0,0,0-15.29-15.34H130.68V632.72A15.72,15.72,0,0,1,146.4,617H212a9.37,9.37,0,0,1,9.39,9.37v2.47Z" style="fill:#83a9d0"/><path d="M203.87,738v.4a13.07,13.07,0,0,1-26.12,0V738a13.07,13.07,0,1,1,26.14,0Z" style="fill:#f6ae1a"/><path d="M210.76,738.43h-6.9V738a13.07,13.07,0,1,0-26.14,0v.4h-6.63V738a13.08,13.08,0,0,0-26.15,0v.34a15.73,15.73,0,0,1-14.3-15.66v-9.62h64.75a15.31,15.31,0,0,1,15.37,15.26v10.08Z" style="fill:#fff"/><path d="M171.12,738v.4a13.07,13.07,0,0,1-26.13-.07V738a13.08,13.08,0,0,1,26.15,0Z" style="fill:#f6ae1a"/><path d="M107.81,707.09v16.83A13.7,13.7,0,0,1,94.12,737.6H89.83v-9.19a15.32,15.32,0,0,0-15.31-15.32H39.18v-91.5h18v55.53A14.78,14.78,0,0,0,66.76,691l40.94,15.44Z" style="fill:#114b99"/><path d="M93.5,636.75l14.16,69.66L66.76,691a14.76,14.76,0,0,1-9.56-13.84V621.61H75A18.93,18.93,0,0,1,93.5,636.75Z" style="fill:#0a705d"/><path d="M89.83,728.43v9.19h-13a13.07,13.07,0,0,0-26.12,0H39.18V713.09H74.52a15.31,15.31,0,0,1,15.31,15.32Z" style="fill:#83a9d0"/><path d="M76.82,738a13.07,13.07,0,1,1-26.14,0v-.41a13.07,13.07,0,0,1,26.12,0A2.75,2.75,0,0,1,76.82,738Z" style="fill:#fff"/><polygon points="39.18 713.11 39.18 737.62 11.83 737.62 11.83 621.61 39.18 621.61 39.18 713.11" style="fill:#fff"/><path d="M110.48,505.31a29.06,29.06,0,1,0,29,29.12v-.74A29,29,0,0,0,110.48,505.31Zm-13.11,29a13.11,13.11,0,1,1,13.11,13.11h0a13.09,13.09,0,0,1-13.11-13.06Z" style="fill:#1f3668"/><path d="M110.48,521.24a13.11,13.11,0,1,0,13.11,13.11h0A13.11,13.11,0,0,0,110.48,521.24Z" style="fill:#1f3668"/><path d="M28.47,488.3C31.47,419,81.6,357.21,203,356.3h25.48c3.17,0,6.37.08,9.56.23a206.14,206.14,0,0,1,36.08,5c64.79,14.92,114.08,41.56,148.46,72.56a220.7,220.7,0,0,1,28.69,31.1,18.49,18.49,0,0,1,1.3,2H433.61a20,20,0,0,0-18.43,12.22l-15.42,28.21h-15a50.19,50.19,0,0,0-86,1.85H154.06a50.19,50.19,0,0,0-87.33.29H31.34a44.06,44.06,0,0,1-2.28-8.59h0a45.37,45.37,0,0,1-.58-7.26Z" style="fill:#fff"/><path d="M212.17,356.26h16.26c3.17,0,6.37.08,9.56.24a204.26,204.26,0,0,1,36.08,5c57.48,13.28,102.75,35.76,136.25,62.29v15.8a18.78,18.78,0,0,1-18.78,18.78,18.4,18.4,0,0,1-2.57-.18L263.82,441c-14.51-2.55-26.7-11.8-32.46-24.65l-26.91-60.06Z" style="fill:#1465aa"/><path d="M304.76,369.79c-4.17,5.82-10.24,10.52-16.77,10.52-7.67,0-14.88-4.8-22.43-4.8-16.61,0-10.65,21.86-23.51,21.86-6.41,0-14.06-7.29-20.19-7.29a6,6,0,0,0-2.1.35l11.6,25.9c5.76,12.84,17.95,22.1,32.46,24.64L389,458.19a18.79,18.79,0,0,0,21.17-16,18.43,18.43,0,0,0,.18-2.58V423.78C383,402.16,347.92,383.23,304.76,369.79Z" style="fill:#1f3668"/><path d="M66.76,509.76a50.19,50.19,0,0,1,87.33-.29H298.76a50.19,50.19,0,0,1,86-1.85h15l15.39-28.19a20,20,0,0,1,18.43-12.21h18.91a14.25,14.25,0,0,1,1.66,6.62v4.25h-9.34A19.16,19.16,0,0,0,426,493.88H436.6a8.88,8.88,0,0,1,8.21-5.53h9.34v9.74a42.2,42.2,0,0,1-.78,8h-8.56a8.88,8.88,0,0,1-8.21-5.53H426a19.17,19.17,0,0,0,18.85,15.79h5.09c-7.76,15.93-25.37,27-45.87,27H369.94a29,29,0,1,0-56.62-9.71v.62a28.63,28.63,0,0,0,1.45,9.09H138.07a29.2,29.2,0,0,0,1.45-9.09v-.62A29,29,0,1,0,82.9,543.4c-24-.14-44.27-14.19-51.55-33.68Z" style="fill:#1f3668"/><path d="M313.32,533.74v.62a28.73,28.73,0,1,0,0-.62Zm15.92.62a13.11,13.11,0,1,1,13.11,13.11h0A13.11,13.11,0,0,1,329.24,534.36Z" style="fill:#114b99"/><path d="M342.35,521.24a13.11,13.11,0,1,0,13.11,13.11h0A13.11,13.11,0,0,0,342.35,521.24Z" style="fill:#fff"/><path d="M426,493.92h10.64a8.87,8.87,0,0,1,8.21-5.54h9.34V478.09h-9.34A19.16,19.16,0,0,0,426,493.92Z" style="fill:#d1dce9"/><path d="M436.63,500.61H426a19.17,19.17,0,0,0,18.85,15.78h5.09a42.1,42.1,0,0,0,3.47-10.3h-8.56A8.9,8.9,0,0,1,436.63,500.61Z" style="fill:#83a9d0"/><path d="M267.63,85.09c0-7.9-6.21-16.53-15.25-16.53-4.24,0-9.71,3-13.79,3-10.35,0-8.78-16.67-22.38-16.67-17,0-20,19.26-30,19.26-3.73,0-7-2.58-10.92-2.58a12.69,12.69,0,0,0-12.63,12.75v.07a15.61,15.61,0,0,0,5.2,11.45,13.6,13.6,0,0,0,8.81,3h76.68C263.17,98.81,267.63,91.53,267.63,85.09Z" style="fill:#d1dce9"/><path d="M230.76,463.09a50.09,50.09,0,1,1-32.29,11.78l2.62,9.16c.12.46.26.91.4,1.36a40.25,40.25,0,1,0,13.71-9.46l-2.68-9.42A49.71,49.71,0,0,1,230.76,463.09Z" style="fill:#114b99"/><path d="M238.39,519.87a7.91,7.91,0,0,0-1.77-11,53.36,53.36,0,0,1-9.5-8.82,54.65,54.65,0,0,1-9.66-16.7c-.43-1.17-.82-2.37-1.16-3.57L215.22,476l-2.68-9.41-16.38-57.43q-1-4.77-2.43-9.59l-15.49,4.34,2.59,9.06a111.56,111.56,0,0,1,2.58,23.26c0,12.27-2.23,22.68-6.81,31.82a127.6,127.6,0,0,1-12,19.38,8.94,8.94,0,0,1,2.43,4.43,11,11,0,0,1,.18,2c0,3.9-2.89,8.51-7.7,8.53h-9.23c-.93.7-1.88,1.35-2.85,2V518H115.25v-5.8h-3.49v1A62.36,62.36,0,0,1,110,528h10.63a66.19,66.19,0,0,0,48.2-21,138.7,138.7,0,0,0,21.94-31.88,75.94,75.94,0,0,0,4.59-11.39l3.18,11.16,2.62,9.16c.12.46.26.91.4,1.36a67.15,67.15,0,0,0,3.07,8.15,70.32,70.32,0,0,0,12.51,18.92,68.52,68.52,0,0,0,10.27,9.13,7.9,7.9,0,0,0,11-1.76Z" style="fill:#ef5025"/><path d="M193.76,399.57l-15.49,4.34-2.93-10.27a2.37,2.37,0,0,0-1.42-1.57,2.4,2.4,0,0,0-2.12.15,28,28,0,0,0-5.51,4.38,7.9,7.9,0,0,1-12.53-9.44c2.63.9,5.05,3.27,8.31,3.27,3,0,5.56-1.71,5.56-5v-.73h0a5.66,5.66,0,0,0,1.17.12c3.65,0,6.7-3.48,6.7-7.27a8.43,8.43,0,0,0-.05-.86,4,4,0,0,0,.92-.3,19.21,19.21,0,0,1,3.4,1,18.13,18.13,0,0,1,10.72,11.9l.66,2.3c.12.27.24.55.34.85C192.33,394.84,193.09,397.21,193.76,399.57Z" style="fill:#1f3668"/><path d="M128.76,544.93h-5.85c-6.75,0-12.07-3-12.07-9.71A22.13,22.13,0,0,1,112.3,528h8.32a66.16,66.16,0,0,0,37.64-11.89c17.7,11.11,22.39,13.82,22.39,20.1,0,3.91-2.89,8.5-7.7,8.54l-12.08.06Z" style="fill:#114b99"/><path d="M176.38,376.41a4,4,0,0,1-.92.3.9.9,0,0,0-.08-.45C175.76,376.31,176.05,376.35,176.38,376.41Z" style="fill:#f6ae1a"/><path d="M161.32,359.35c-9.81,0-20.06,4-29.37,8.95l15.47,21.16c1.59-1.64,3.06-2.63,4.48-2.63a5.64,5.64,0,0,1,1.9.34c2.63.9,5,3.27,8.31,3.27,3,0,5.56-1.71,5.56-5v-.74h0a5.66,5.66,0,0,0,1.17.12c3.65,0,6.7-3.48,6.7-7.26a8.11,8.11,0,0,0,0-.86.9.9,0,0,0-.08-.45,6.69,6.69,0,0,1,1,.14,6.18,6.18,0,0,0,3.62-5.95C180,362.17,169.49,359.35,161.32,359.35Z" style="fill:#fff"/><path d="M160.87,544.8v15.58H128.76V544.93Zm-9.78,7.59a6.29,6.29,0,1,0-6.29,6.29h0a6.29,6.29,0,0,0,6.29-6.29h0Z" style="fill:#1f3668"/><path d="M103.76,447.47c-5.83,6.62-12.77,11.6-21.83,12.81a61.44,61.44,0,0,0-26.3-8.74,29.92,29.92,0,0,1-8.69-15.9H79.06a25.23,25.23,0,0,0,9-1.67,26.37,26.37,0,0,0,14.85-14.3,21.49,21.49,0,0,0,7.19,1.24c15.61,0,25.46-15.8,32.78-25.88h0c11.34.51,16.89,13.29,16.89,24.54,0,.71,0,1.45-.06,2.21-.63,11.14-5.7,27.89-10.47,41.17a10.54,10.54,0,0,1-9.92,7H108a5.54,5.54,0,0,1-1-.06,7.58,7.58,0,0,1-6.38-5.59,16.87,16.87,0,0,1-.52-4.42C100.1,455.89,101.54,451.63,103.76,447.47Z" style="fill:#1f3668"/><path d="M144.76,546.09a6.29,6.29,0,1,1-6.29,6.28h0A6.29,6.29,0,0,1,144.76,546.09Z" style="fill:#f6ae1a"/><path d="M103,419.67A26.37,26.37,0,0,1,88.14,434a25.23,25.23,0,0,1-9,1.67H39.56c2.85-36.64,13-94.23,46.64-94.23,18.24,0,25.51,19.4,33.35,34.26,1.26-.81,2.56-1.64,3.89-2.45,2.71-1.68,5.57-3.36,8.51-4.93l15.47,21.16A50.72,50.72,0,0,0,143,395h0c-7.32,10.06-17.2,25.88-32.78,25.88A21.49,21.49,0,0,1,103,419.67Z" style="fill:#f6ae1a"/><path d="M115.25,502.55V518H147.4V502.42ZM137.61,510a6.28,6.28,0,0,1-12.25,2,6.16,6.16,0,0,1-.32-2,6.29,6.29,0,0,1,12.52-.81A7.34,7.34,0,0,1,137.61,510Z" style="fill:#1f3668"/><path d="M50.15,240.09a23.24,23.24,0,0,1,18-10.7h1.3c14.28,0,21.8,14.53,23.87,29.5,5.51-6.76,16.15-15.35,28.11-15.35,9.9,0,16.87,5,21.29,12.63a39,39,0,0,1,3,6.5c-1,.05-1.93.08-2.87.08a33.34,33.34,0,0,1-19.72-5.91,49.47,49.47,0,0,1,2.09,14.34c0,14.22-4.83,20.28-9.83,24.59-1.52-6.71-5.15-13.24-11.27-13.24-5.11,0-13.42,5.55-13.42,16.08,0,11.73,9.2,22.67,23.85,25.06-4,11.14-15.8,17.09-27.76,17.09h-.57a33.57,33.57,0,0,1-13-2.68A28.33,28.33,0,0,1,60,326.51a30.37,30.37,0,0,1-4.2-13.63c-.06-.85-.09-1.73-.09-2.62,0-21.78,15.84-30.2,25.89-39.35-11-.86-29.14-2.53-33.17-16.05a20.35,20.35,0,0,1-.81-5.9A17,17,0,0,1,50.15,240.09Z" style="fill:#ef5025"/><path d="M137.56,509.19c0,.27,0,.55,0,.81a6.28,6.28,0,0,1-12.25,2A50.09,50.09,0,0,0,137.56,509.19Z" style="fill:#f6ae1a"/><path d="M131.33,503.72a6.27,6.27,0,0,1,6.23,5.47,50.68,50.68,0,0,1-12.2,2.78,6.27,6.27,0,0,1,6-8.25Z" style="fill:#f6ae1a"/><path d="M111.76,512.19v1A62.38,62.38,0,0,1,110,528v.12H64.51a12.52,12.52,0,0,1-11-6.54l-11-20.46-4.14-7.67a12.57,12.57,0,0,0-11-6.55H17.61a10.49,10.49,0,0,1-8.06-3.78,9.19,9.19,0,0,1-1.18-1.74l-5-9.22a61.82,61.82,0,0,1,46.39-20.87q3,0,5.92.28A61.44,61.44,0,0,1,82,460.28a62.36,62.36,0,0,1,19.63,19c-2.19,4.26-4,8.71-4.23,12.59h0v1c0,6.7,5.31,9.73,12.06,9.73h1.41A64.31,64.31,0,0,1,111.76,512.19Z" style="fill:#ef5025"/><path d="M167,491.86H97.37v1c0,6.7,5.31,9.73,12.06,9.73h5.85l32.15-.15h12.08c4.81,0,7.7-4.63,7.7-8.53A10,10,0,0,0,167,491.86Z" style="fill:#fff"/><path d="M164.57,487.43a41.14,41.14,0,0,0-7.36-5.8c-2.9-1.94-6.56-4.23-11.15-7.11-2.19-1.38-4.6-2.89-7.24-4.57H108a8.26,8.26,0,0,1-1-.06V470c-.77,1.23-1.59,2.55-2.41,3.95-1,1.7-2,3.51-3,5.36-2.19,4.26-4,8.72-4.23,12.6H167A9,9,0,0,0,164.57,487.43Z" style="fill:#83a9d0"/><path d="M87.38,528.09H97.76a50.12,50.12,0,1,1-88.23-45,10.48,10.48,0,0,0,8.06,3.77h1.32a40.37,40.37,0,1,0,68.47,41.23Z" style="fill:#114b99"/><path d="M152.56,302.48,148,295.13c0-.6.11-1.23.16-1.85.32-3.8.56-7.65.56-11.45A62.47,62.47,0,0,0,147,267c-.37-1.48-.8-2.92-1.3-4.32-1,0-1.93.08-2.87.08a33.34,33.34,0,0,1-19.72-5.91,49.47,49.47,0,0,1,2.09,14.34c0,14.22-4.83,20.28-9.83,24.6-1.52-6.72-5.15-13.25-11.27-13.25-5.11,0-13.42,5.55-13.42,16.08,0,11.73,9.2,22.67,23.85,25.06-4,11.14-15.8,17.09-27.76,17.09h-.57v.66c18.24,0,25.51,19.4,33.35,34.27,1.26-.81,2.56-1.64,3.89-2.46l-3.69-22.13a25.58,25.58,0,0,0,8.47,1.2c19,0,19.29-18.93,19.3-41.56v-5.82h3.7a1.58,1.58,0,0,0,1.33-2.43Z" style="fill:#fff"/><path d="M224.76,444.5a12.82,12.82,0,0,1-12.47,9.85H196.82V420.76h23.52a8,8,0,0,1,7.94,7.95,8.28,8.28,0,0,1-.22,1.85Z" style="fill:#ef5025"/><g style="clip-path:url(#clip-path)"><path d="M253.45,446a17,17,0,0,1-16.57,13.08H216.36V414.48h31.25a10.56,10.56,0,0,1,10.55,10.57,10.41,10.41,0,0,1-.28,2.43Z" style="fill:#f6ae1a"/></g><path d="M141,307.22a15,15,0,0,0,6.54,3.6" style="fill:none;stroke:#1465aa;stroke-linecap:round;stroke-linejoin:round;stroke-width:1.4900000095367432px"/><path d="M140.22,299.82a8.06,8.06,0,0,1,1.48,4.49c0,3.09-2.15,5.71-5.67,6.46" style="fill:none;stroke:#1465aa;stroke-linecap:round;stroke-linejoin:round;stroke-width:1.4900000095367432px"/><path d="M102.65,420.38C82.27,414.7,74,392,72,367.38" style="fill:none;stroke:#1f3668;stroke-linecap:round;stroke-linejoin:round;stroke-width:1.4900000095367432px"/><path d="M159.32,378.09a6.78,6.78,0,0,1,1.68-.21c4.47,0,8,4.3,8,8.78a9.32,9.32,0,0,1-.2,1.83" style="fill:none;stroke:#1f3668;stroke-linecap:round;stroke-linejoin:round;stroke-width:1.4900000095367432px"/><path d="M165.41,372.69a9.26,9.26,0,0,1,3.41-.72c4.27,0,7.15,3.69,7.78,8.3" style="fill:none;stroke:#1f3668;stroke-linecap:round;stroke-linejoin:round;stroke-width:1.4900000095367432px"/><path d="M101.23,451.16c5-9.91,12.52-18.11,23.9-21.53" style="fill:none;stroke:#fff;stroke-linecap:round;stroke-linejoin:round;stroke-width:1.4900000095367432px"/><circle cx="141.99" cy="286.73" r="1.86" style="fill:#1465aa"/><path d="M351.76,365.73a6.18,6.18,0,0,1,.66-1,20,20,0,0,1,11.18-6.64,20.36,20.36,0,0,1,18.48,5,23.11,23.11,0,0,1,1.83,1.87,1.49,1.49,0,0,1,.1,2.1.94.94,0,0,1-.1.1,1.51,1.51,0,0,1-2.13-.15l-.07-.08a18.8,18.8,0,0,0-3.44-3.11,17.09,17.09,0,0,0-8-3,17.44,17.44,0,0,0-13.51,3.91,28.72,28.72,0,0,0-2.23,2.18,1.72,1.72,0,0,1-1.07.63c-.81.09-1.32-.27-1.69-1.21Z" style="fill:#114b99"/><path d="M379.81,369.79a1.46,1.46,0,0,1-2.51,1.07c-.6-.57-1.15-1.2-1.79-1.72a11.87,11.87,0,0,0-16.25,1.27c-.14.16-.28.32-.44.47a1.47,1.47,0,0,1-2,.05,1.45,1.45,0,0,1-.2-2,12.91,12.91,0,0,1,2.47-2.37,14.9,14.9,0,0,1,20.33,2.26A1.42,1.42,0,0,1,379.81,369.79Z" style="fill:#114b99"/><path d="M368.22,369.48a8.91,8.91,0,0,1,6.65,3.15,1.47,1.47,0,0,1-.08,2.08h0a1.46,1.46,0,0,1-2.07-.05l0,0a7,7,0,0,0-2.54-1.79,6,6,0,0,0-6.3,1.39l-.46.48a1.49,1.49,0,0,1-2,.06,1.43,1.43,0,0,1-.26-2h0a9,9,0,0,1,1.49-1.47A8.87,8.87,0,0,1,368.22,369.48Z" style="fill:#114b99"/><path d="M368,381.41a3,3,0,1,1,3-3v0A3,3,0,0,1,368,381.41Z" style="fill:#114b99"/><path d="M584.76,588.43l-9.55,6-9.56-6a1,1,0,0,0-1,0l-9.56,6-9.55-6a1,1,0,0,0-1,0l-9.56,6-9.55-6a1,1,0,0,0-1,0l-9.56,6-9.55-6a1,1,0,0,0-1,0l-9.55,6-9.56-6a1,1,0,0,0-1,0l-9.56,6-9.55-6a1,1,0,0,0-1.05,0l-9.55,6-9.55-6a1,1,0,0,0-1.05,0l-9.55,6-9.55-6a1,1,0,0,0-1.05,0l-9.55,6-9.56-6a1,1,0,0,0-1.05,0l-9.55,6-9.56-6a1,1,0,0,0-1,0l-9.56,6-9.55-6a1,1,0,0,0-1,0l-9.55,6-9.56-6a1,1,0,0,0-1.05,0l-9.55,6-9.55-6a1,1,0,0,0-1,0l-9.55,6-9.56-6a1,1,0,0,0-1.05,0l-9.55,6-9.55-6a1,1,0,0,0-1,0l-9.55,6-9.55-6a1,1,0,0,0-1,0l-9.55,6-9.56-6a1,1,0,0,0-1,0l-9.55,6-9.55-6a1,1,0,0,0-1,0l-9.55,6-9.55-6a1,1,0,0,0-1,0l-9.55,6-9.55-6a1,1,0,0,0-1,0l-9.55,6-9.55-6a1,1,0,0,0-1.05,0l-9.55,6-9.55-6a1,1,0,0,0-1,0l-9.55,6-9.56-6a1,1,0,0,0-1,0l-9.55,6-9.55-6a1,1,0,0,0-1,0l-9.55,6-9.55-6a1,1,0,0,0-1,0l-9.55,6-9.55-6a1,1,0,0,0-1,0l-9.55,6-9.54-6a1,1,0,0,0-1,0l-9.55,6-9.55-6a1,1,0,0,0-1,0l-9.51,5.93a1,1,0,0,0-.09,1.42,1,1,0,0,0,.5.31l9-5.6,9.56,6a1,1,0,0,0,1,0l9.55-6,9.55,6a1,1,0,0,0,1,0l9.55-6,9.55,6a1,1,0,0,0,1,0l9.56-6,9.55,6a1,1,0,0,0,1.05,0l9.54-6,9.55,6a1,1,0,0,0,1,0l9.55-6,9.55,6a1,1,0,0,0,1,0l9.55-6,9.55,6a1,1,0,0,0,1,0l9.55-6,9.55,6a1,1,0,0,0,1.05,0l9.55-6,9.56,6a1,1,0,0,0,1,0l9.55-6,9.56,6a1,1,0,0,0,1,0l9.56-6,9.55,6a1,1,0,0,0,1,0l9.55-6,9.55,6a1,1,0,0,0,1.05,0l9.55-6,9.55,6a1,1,0,0,0,1.05,0l9.55-6,9.56,6a1,1,0,0,0,1,0l9.55-6,9.55,6a1,1,0,0,0,1.05,0l9.55-6,9.56,6a1,1,0,0,0,1,0l9.56-6,9.55,6a1,1,0,0,0,1,0l9.55-6,9.56,6a1,1,0,0,0,1.05,0l9.55-6,9.55,6a1,1,0,0,0,1,0l9.56-6,9.55,6a1,1,0,0,0,1.05,0l9.55-6,9.56,6a1,1,0,0,0,1,0l9.55-6,9.56,6a1,1,0,0,0,1,0l9.56-6,9.55,6a1,1,0,0,0,1.05,0l9.55-6,9.55,6a1,1,0,0,0,1.05,0l9.56-6,9.55,6a1,1,0,0,0,1,0l9.55-6,9.56,6a1,1,0,0,0,1,0l9.55-6,9.56,6a1,1,0,0,0,1,0l9.56-6,9.55,6a1,1,0,0,0,1,0l9.57-6,8.73,5.14a1.06,1.06,0,0,0,.5.12v-2.12l-8.74-5.15A1,1,0,0,0,584.76,588.43Z" style="fill:#1f3668"/><path d="M585.82,578.57a1,1,0,0,0-1,0l-9.55,6-9.56-6a1,1,0,0,0-1,0l-9.56,6-9.55-6a1,1,0,0,0-1,0l-9.56,6-9.55-6a1,1,0,0,0-1,0l-9.56,6-9.55-6a1,1,0,0,0-1.05,0l-9.55,6-9.56-6a1,1,0,0,0-1,0l-9.56,6-9.55-6a1,1,0,0,0-1.05,0l-9.55,6-9.55-6a1,1,0,0,0-1.05,0l-9.55,6-9.55-6a1,1,0,0,0-1.05,0l-9.55,6-9.56-6a1,1,0,0,0-1.05,0l-9.55,6-9.56-6a1,1,0,0,0-1,0l-9.56,6-9.55-6a1,1,0,0,0-1.05,0l-9.55,6-9.56-6a1,1,0,0,0-1.05,0l-9.55,6-9.55-6a1,1,0,0,0-1,0l-9.55,6-9.56-6a1,1,0,0,0-1.05,0l-9.55,6-9.55-6a1,1,0,0,0-1,0l-9.55,6-9.55-6a1,1,0,0,0-1,0l-9.55,6-9.56-6a1,1,0,0,0-1,0l-9.55,6-9.55-6a1,1,0,0,0-1,0l-9.55,6-9.55-6a1,1,0,0,0-1,0l-9.55,6-9.55-6a1,1,0,0,0-1,0l-9.55,6-9.55-6a1,1,0,0,0-1.05,0l-9.55,6-9.55-6a1,1,0,0,0-1,0l-9.55,6-9.56-6a1,1,0,0,0-1,0l-9.55,6-9.55-6a1,1,0,0,0-1,0l-9.55,6-9.55-6a1,1,0,0,0-1,0l-9.55,6-9.55-6a1,1,0,0,0-1,0l-9.55,6-9.54-6a1,1,0,0,0-1,0l-9.55,6-9.55-6a1,1,0,0,0-1,0l-9.51,5.93a1,1,0,0,0-.31,1.36,1,1,0,0,0,1.36.32l9-5.61,9.56,6a1,1,0,0,0,1,0l9.55-6,9.55,6a1,1,0,0,0,1.05,0l9.55-6,9.55,6a1,1,0,0,0,1,0l9.56-6,9.55,6a1,1,0,0,0,1,0l9.54-6,9.55,6a1,1,0,0,0,1,0l9.55-6,9.55,6a1,1,0,0,0,1,0l9.55-6,9.55,6a1,1,0,0,0,1.05,0l9.55-6,9.55,6a1,1,0,0,0,1,0l9.55-6,9.56,6a1,1,0,0,0,1,0l9.55-6,9.56,6a1,1,0,0,0,1,0l9.56-6,9.55,6a1,1,0,0,0,1.05,0l9.55-6,9.55,6a1,1,0,0,0,1,0l9.55-6,9.55,6a1,1,0,0,0,1.05,0l9.55-6,9.56,6a1,1,0,0,0,1.05,0l9.55-6,9.55,6a1,1,0,0,0,1.05,0l9.55-6,9.56,6a1,1,0,0,0,1,0l9.56-6,9.55,6a1,1,0,0,0,1,0l9.55-6,9.56,6a1,1,0,0,0,1.05,0l9.55-6,9.55,6a1,1,0,0,0,1,0l9.56-6,9.55,6a1,1,0,0,0,1.05,0l9.55-6,9.56,6a1,1,0,0,0,1,0l9.55-6,9.56,6a1,1,0,0,0,1,0l9.56-6,9.55,6a1,1,0,0,0,1,0l9.55-6,9.55,6a1,1,0,0,0,1.05,0l9.56-6,9.55,6a1,1,0,0,0,1,0l9.55-6,9.56,6a1,1,0,0,0,1,0l9.55-6,9.56,6a1,1,0,0,0,1,0l9.56-6,9.55,6a1,1,0,0,0,1,0l9.57-6,8.73,5.15a1.06,1.06,0,0,0,.5.12v-2.12Z" style="fill:#1f3668"/><path d="M585.82,568.74a1,1,0,0,0-1,0l-9.55,6-9.56-6a1,1,0,0,0-1,0l-9.56,6-9.55-6a1,1,0,0,0-1,0l-9.56,6-9.55-6a1,1,0,0,0-1,0l-9.56,6-9.55-6a1,1,0,0,0-1.05,0l-9.55,6-9.56-6a1,1,0,0,0-1,0l-9.56,6-9.55-6a1,1,0,0,0-1.05,0l-9.55,6-9.55-6a1,1,0,0,0-1.05,0l-9.55,6-9.55-6a1,1,0,0,0-1.05,0l-9.55,6-9.56-6a1,1,0,0,0-1.05,0l-9.55,6-9.56-6a1,1,0,0,0-1,0l-9.56,6-9.55-6a1,1,0,0,0-1.05,0l-9.55,6-9.56-6a1,1,0,0,0-1.05,0l-9.55,6-9.55-6a1,1,0,0,0-1,0l-9.55,6-9.56-6a1,1,0,0,0-1.05,0l-9.55,6-9.55-6a1,1,0,0,0-1,0l-9.55,6-9.55-6a1,1,0,0,0-1,0l-9.55,6-9.56-6a1,1,0,0,0-1,0l-9.55,6-9.55-6a1,1,0,0,0-1,0l-9.55,6-9.55-6a1,1,0,0,0-1,0l-9.55,6-9.55-6a1,1,0,0,0-1,0l-9.55,6-9.55-6a1,1,0,0,0-1.05,0l-9.55,6-9.55-6a1,1,0,0,0-1,0l-9.55,6-9.56-6a1,1,0,0,0-1,0l-9.55,6-9.55-6a1,1,0,0,0-1,0l-9.55,6-9.55-6a1,1,0,0,0-1,0l-9.55,6-9.55-6a1,1,0,0,0-1,0l-9.55,6-9.54-6a1,1,0,0,0-1,0l-9.55,6-9.55-6a1,1,0,0,0-1,0l-9.51,5.93a1,1,0,0,0-.13,1.4,1,1,0,0,0,1.18.28l9-5.6,9.56,6a1,1,0,0,0,1,0l9.55-6,9.55,6a1,1,0,0,0,1.05,0l9.55-6,9.55,6a1,1,0,0,0,1,0l9.56-6,9.55,6a1,1,0,0,0,1,0l9.54-6,9.55,6a1,1,0,0,0,1,0l9.55-6,9.55,6a1,1,0,0,0,1,0l9.55-6,9.55,6a1,1,0,0,0,1.05,0l9.55-6,9.55,6a1,1,0,0,0,1,0l9.55-6,9.56,6a1,1,0,0,0,1,0l9.55-6,9.56,6a1,1,0,0,0,1,0l9.56-6,9.55,6a1,1,0,0,0,1.05,0l9.55-6,9.55,6a1,1,0,0,0,1,0l9.55-6,9.55,6a1,1,0,0,0,1.05,0l9.55-6,9.56,6a1,1,0,0,0,1.05,0l9.55-6,9.55,6a1,1,0,0,0,1.05,0l9.55-6,9.56,6a1,1,0,0,0,1,0l9.56-6,9.55,6a1,1,0,0,0,1,0l9.55-6,9.56,6a1,1,0,0,0,1.05,0l9.55-6,9.55,6a1,1,0,0,0,1,0l9.56-6,9.55,6a1,1,0,0,0,1.05,0l9.55-6,9.56,6a1,1,0,0,0,1,0l9.55-6,9.56,6a1,1,0,0,0,1,0l9.56-6,9.55,6a1,1,0,0,0,1,0l9.55-6,9.55,6a1,1,0,0,0,1.05,0l9.56-6,9.55,6a1,1,0,0,0,1,0l9.55-6,9.56,6a1,1,0,0,0,1,0l9.55-6,9.56,6a1,1,0,0,0,1,0l9.56-6,9.55,6a1,1,0,0,0,1,0l9.57-6,8.73,5.14a1.06,1.06,0,0,0,.5.12v-2.13Z" style="fill:#1f3668"/></g></g></svg>