<?xml version="1.0" encoding="utf-8"?>
<!-- Generator: Adobe Illustrator 21.0.2, SVG Export Plug-In . SVG Version: 6.00 Build 0)  -->
<svg version="1.1" id="Layer_1" xmlns="http://www.w3.org/2000/svg" xmlns:xlink="http://www.w3.org/1999/xlink" x="0px" y="0px"
	 viewBox="0 0 859 390.7" style="enable-background:new 0 0 859 390.7;" xml:space="preserve">
<g>
	<path d="M573.6,264.1c2.6-10,5-17.8,6.7-25.8c1-4.9,0.8-10.1,1.3-15.1c0.8-8.1,1.3-16.3,2.6-24.3c2.5-15.4,5.6-30.6,8.3-46
		c1.7-10.1,2.9-20.3,4.6-30.4c0.9-5.6,2.7-11,3.7-16.6c1-5.4,1.4-10.9,2.4-16.3c0.7-4.2,1.8-8.3,2.8-12.4c0.4-1.6,0.8-3.2,1.3-4.8
		c2.1-6.6,4.4-13.2,6.3-19.9c0.9-3.1,1.5-6.5,1.7-9.7c0.2-4.9,3-5.8,7-5.4c2.4,0.2,4.9,0.7,8.4,1.3c0,2.8,0.4,5.9-0.1,8.9
		c-1.4,9.9-3.1,19.6-4.5,29.5c-0.9,6.7-1.3,13.5-2.2,20.2c-0.8,5.6-2.1,11.2-2.8,16.8c-1.6,11.5-2.6,23.1-4.4,34.6
		c-2.3,14.8-5.2,29.5-7.8,44.2c-1.6,8.8-3.2,17.6-5.1,26.3c-0.8,3.5-2.3,6.9-3.5,10.3c-0.2,0.6-0.6,1.3-0.6,1.9
		c0.6,10.2-2.3,19.7-4.4,29.5c-1.2,5.4-3.4,10.6-1.9,16.7c0.8,3-1,6.8-1.8,10.2c-1.8,7.8-3.8,15.5-5.5,23.2
		c-1.6,7.2-3.3,14.5-4.4,21.8c-0.8,5.1-0.8,10.3-1.2,16.7c-6-1.3-11-2.1-15.7-3.7c-1.8-0.6-3.3-3-4.1-4.9c-3-7.1-5.7-14.2-7-22.1
		c-1.4-8.8-5.8-17-8.6-25.6c-2-6-3.3-12.3-5-18.4c-3.3-11.5-4.2-23.6-9.8-34.6c-2.7-5.2-2.8-11.6-4.7-17.2
		c-3.1-9.1-7-17.9-10.2-27.1c-2-5.9-3.2-12-4.8-18c-0.9-3.2-1.6-6.5-2.6-9.7c-2.9-9.1-6.3-18.1-8.9-27.4c-1.8-6.2-2.2-12.8-3.9-19.1
		c-1.7-6.5-4-12.9-6.3-19.2c-0.3-0.8-1.9-1.4-2.9-1.4c-0.5,0-1.5,1.2-1.7,1.9c-1.3,6.5-2.4,13-3.6,19.6c-1.2,6.6-2.5,13.1-3.5,19.7
		c-1.2,7.7-0.8,15.9-3.5,23c-2.9,7.5-0.1,15.5-4.5,22.9c-2.8,4.7-1.6,11.7-2.5,17.6c-0.9,6-2,11.9-3.1,17.9c-0.6,3.2-1,6.4-1.6,9.6
		c-2.3,11.9-4.7,23.8-7,35.6c-1.7,8.7-3.3,17.4-4.7,26.1c-1.4,8.3-1.9,16.8-3.8,25c-1.7,7.3-4.7,14.3-7.1,21.4
		c-0.3,0.8-0.7,1.5-0.9,2.3c-2.1,7.4-2,7.4-10,5.8c-1.3-0.2-2.6-0.3-4-0.3c-3.8-0.2-6.2-2.5-5.9-6c0.4-5.8,1.8-11.5,2.7-17.3
		c0.3-2,1-4.1,0.5-5.9c-1.9-7.9,3-14.3,4.3-21.4c0.7-3.6,1.8-7.1,2.4-10.7c1.9-10.8,3.5-21.7,5.4-32.5c1.3-7.7,3-15.4,4.3-23.1
		c1.5-8.9,2.5-17.8,4-26.6c0.7-4.1,2.1-8.1,2.9-12.1c0.8-4.1,1.3-8.3,2.1-12.4c1.6-8.6,3.2-17.1,4.8-25.7c1.9-9.6,3.8-19.1,5.6-28.7
		c2.2-11.4,4.2-22.9,6.5-34.4c1.4-7.1,3.4-14,4.6-21.1c1.4-8.5,2.3-17.1,3.3-25.7c0.5-4.5,3.5-8.9,7.4-9.4c4.6-0.6,8.3,0.2,11.1,5.1
		c6.2,10.8,13.4,21,19.8,31.7c1.6,2.6,1.9,6,2.7,9.1c1.5,6.1,2.4,12.3,4.4,18.2c3,8.8,7.9,17.1,9.7,26c1.3,6.3,2.7,12.3,4.9,18.2
		c1.3,3.5,2.4,7.2,4,10.6c2.7,6.1,5.7,11.9,6.4,18.8c0.4,4.3,2.1,8.5,3.4,12.7c2.1,6.9,4.5,13.7,6.6,20.6c0.9,3.2,1,6.7,2,9.9
		c1.6,5.2,3.7,10.3,5.6,15.5c3.2,9,6.3,18,9.7,27C570,261,571.7,262,573.6,264.1z"/>
	<path d="M228.5,102.5c1.4-5,2.7-9.6,4.1-14.2c2.7-8.8,5.4-17.6,8-26.5c1.2-3.9,2.9-6.8,7.8-6.5c2.9,0.2,5.9-0.5,8.8-0.8
		c2.8-0.2,4.9,1.1,4.6,3.9c-0.6,6.1-1.7,12.2-2.5,18.2c-0.3,2.3-2.9,4.6,0.8,6.9c0.9,0.6-0.2,4.8-0.7,7.4
		c-1.3,6.8-2.7,13.6-4.1,20.4c-0.3,1.6-0.7,3.3-1.5,4.6c-2.1,3.3-3.1,6.4-2.4,10.6c0.5,3.1-1.6,6.5-2.3,9.9
		c-1.1,5.2-1.6,10.5-3,15.6c-0.7,2.8-3.1,5.1-4,7.8c-2.9,8.6-5.3,17.3-8.2,25.8c-0.9,2.7-2.3,5.5-4.3,7.5c-2.8,2.7-0.7,2.8,1,3.3
		c-2,7.6-4.1,15.2-6.2,23.2c-0.3-1.9-0.6-3.4-0.9-4.9c-0.3,0-0.7,0-1,0c-0.6,5.8-1,11.7-1.7,17.5c-0.7,5.6-1.6,11.3-2.4,16.9
		c-0.2,1.6-0.2,3.2-0.1,4.8c0,1.1,0.4,2.3,0.2,3.4c-1.2,7.8-3.6,15.6-3.5,23.4c0,4.9-3.7,10.4,1.2,15.1c0.7,0.6,0.4,2.6,0.1,3.8
		c-1.8,6.4,2,11.4,4.8,16.1c1.5,2.5,6.2,3.2,9.4,4.6c3.7,1.6,7.4,3.4,11.2,4.8c2.5,0.9,5.2,1.4,7.8,1.6c4.9,0.4,9.9,1,14.8,0.6
		c6.9-0.6,13.5-2.3,19.2-6.7c1.5-1.2,3.8-1.5,6.5-2.5c1.3-1.4,2.9-4.1,5.2-5.5c8.6-5.1,11.1-13.6,14-22.3c1.5-4.6,4-9,6.9-12.9
		c5.8-8.1,7.8-17.3,10.1-26.7c2.1-8.6,5-17.1,7-25.7c1.4-5.9,1.7-12.1,2.9-18.1c1.5-7.2,3.1-14.4,5.2-21.4
		c2.5-8.6,5.7-17.1,8.3-25.7c2.4-8,4.2-16.1,6.4-24.1c2.7-9.9,5.2-19.8,8.1-29.7c2.9-9.9,6.3-19.6,9.1-29.5c0.7-2.6-0.1-5.5,0-8.3
		c0.1-3,0.1-6,0.8-8.8c0.3-1.1,2.2-2.3,3.5-2.5c2.8-0.3,5.8-0.3,8.6,0.2c1.5,0.3,3.3,1.5,4,2.8c3.2,5.9,2.1,12.3,1.9,18.7
		c0,1.1-0.6,2.3-0.3,3.2c2.5,6.6,0.4,12.8-1,19.2c-0.8,4-0.9,8.2-1.9,12.2c-1.3,5.3-3.2,10.5-4.7,15.7c-0.5,1.6-0.8,3.3-1.1,5
		c-0.2,1.2-0.1,2.5-0.4,3.6c-2.2,8.9-4.4,17.8-6.8,26.7c-1,3.7-2.7,7.2-3.6,10.8c-1.1,4.7-1.5,9.5-2.4,14.3c-0.4,2-1.7,3.8-2.1,5.7
		c-1.4,6.1-2.5,12.2-3.7,18.3c-1.9,9.6-3.8,19.2-5.9,28.7c-1.2,5.4-2.9,10.7-4.2,16.1c-0.8,3.6-1,7.4-2.1,10.9
		c-1.4,4.4-3.6,8.5-5.1,12.8c-1.2,3.4-1.8,7.1-2.9,10.6c-0.6,1.8-1.7,3.5-2.8,5.2c-4.2,6.2-8.5,12.3-12.7,18.5
		c-0.7,1.1-1.3,2.4-2.2,3.2c-4.1,3.6-7.9,8-12.7,10.2c-7.7,3.5-16.2,5.7-24.4,8.2c-9.1,2.8-18.3,5.3-27.4,8.3
		c-8.6,2.8-17.1,1.5-25.6,0c-3.9-0.7-7.8-1.6-11.4-3.1c-8-3.3-14.6-8.6-20.6-14.8c-11.1-11.4-13.1-26-14-40.6
		c-0.6-11.7,1-23.6,1.7-35.4c0.2-3.2,0.2-6.3,0.5-9.5c0.7-7.5,1.3-15,2.2-22.4c0.2-1.4,1.2-2.7,1.5-4.1c2.1-7.8,4-15.7,6.1-23.6
		c0.3-1.2,0.9-2.4,1.4-3.5c0.7-1.5,2-2.9,2.1-4.4c0.2-8.3,3.4-15.6,7-22.9c1.1-2.1,1.1-4.8,1.8-7.1c2.3-8.2,4.8-16.3,7-24.5
		c1.2-4.7,2.1-9.4,3.1-14.2c0.7-3.5,1-7,1.9-10.4C226.4,104.1,227.8,103.3,228.5,102.5z"/>
	<path d="M857.1,8.7c0.6,2.5,0.9,4.3,1.4,6c1.5,5.1-0.3,10.6-4.4,14c-0.8,0.7-2.1,1.9-2,2.3c2.1,5.1-1.6,8.6-3.6,12.3
		c-4,7.5-9,14.5-12.7,22.1c-3.4,7-5.2,14.7-8.4,21.7c-3.4,7.5-7.5,14.7-11.3,22c-3.1,5.8-6.2,11.6-9.2,17.4
		c-4.3,8.3-8.7,16.7-12.9,25c-3.8,7.3-7.2,14.9-11.3,22c-3.3,5.6-9,10.3-10.7,16.3c-3,9.9-11.4,15.6-15.6,24.5
		c-3.4,7.1-9.6,12.9-14.8,19.1c-3.2,3.8-5.8,7.3-5.5,12.7c0.2,3.3-1.2,6.7-1.9,10.1c-0.4,1.9-1.4,3.9-1.3,5.8
		c0.3,8.7-2.5,16.6-5,24.7c-1.4,4.7-1.3,9.9-2.4,14.7c-1.9,8.5-4.6,16.9-6.2,25.5c-1.5,7.7-1.9,15.6-3.2,23.4
		c-0.9,5.5-2.5,10.8-3.8,16.3c-0.5,2.2-0.9,4.4-1.4,6.5c-1.4,5.7-2.8,11.3-4.3,17.5c-4.4-1.7-8.6-2.8-12.3-4.9
		c-1.8-1-3.6-3.6-3.7-5.6c-0.5-9.5-0.2-19-0.7-28.5c-0.4-7.2,2-13.5,3.9-20.2c2.4-8.4,3.3-17.2,5.2-25.7c1.9-8.7,4.1-17.3,6-25.9
		c1.1-5.1,1.9-10.2,2.9-15.3c0.3-1.4,0.8-2.8,1.2-4.2c2.7-9.2,5.1-18.5,8.1-27.6c2-6.1-2.3-10.2-4.1-15c-2.3-6.2-5.2-12.2-7.8-18.2
		c-2.9-6.8-5.9-13.6-8.6-20.4c-0.8-2.1-0.8-4.5-1.5-6.6c-2-6.3-4.4-12.5-6.3-18.9c-4.3-15.2-8.4-30.5-12.5-45.8
		c-2.7-10-5.6-20-8.1-30.1c-1.1-4.3-1.2-8.7-2.2-13c-2.4-10.2-5.1-20.4-7.8-30.5c-2.2-7.9-4.7-15.7-7-23.6c-0.9-3,1.9-6.3,5.9-7.2
		c4.4-1,8.7-2.1,13.7-3.3c0.3,0.6,1.2,1.7,1.3,2.8c1.4,10.1,7.7,19,6.9,29.6c-0.1,0.8,0.1,1.8,0.5,2.4c7.6,10.4,10.1,22.8,13.2,34.9
		c2.4,9.4,6,18.6,8.7,28c2.7,9.3,5,18.7,7.4,28.1c2.5,9.7,3.9,19.7,9.6,28.4c1.3,2,1.5,4.7,2,7.1c2,9.8,3.7,19.6,8.9,28.4
		c1.8,3,2.2,6.8,3.2,10.2c1.1,3.7,3.5,5,6.6,2.4c3-2.5,5.7-5.2,6.9-9.6c1.5-5.4,4.8-10.4,7.6-15.3c4.6-8.1,9.6-16.1,14.2-24.2
		c6.2-10.9,12-21.9,18.2-32.7c6.3-10.9,13.2-21.4,19.2-32.5c5.3-9.9,9.7-20.3,14.6-30.4c1.9-3.9,4.4-7.6,6.7-11.3
		c0.9-1.4,1.9-2.8,2.8-4.2c2.2-3.1,5.6-5.9,6.4-9.4c1.4-5.6,5.5-9.3,8-14.1C846.6,13.5,851.5,10.6,857.1,8.7z"/>
	<path d="M88.5,305.6c-4.3-1-10-2.4-15.7-3.5c-8.6-1.6-17.3-2.4-25.8-4.4c-5.6-1.3-11.2-3.7-16.3-6.4c-7.7-4-15-9-22.7-13
		c-7.1-3.7-9.8-8.3-6.8-15.2c0.8-1.9,5.8-3.8,7.7-3c4.8,2.1,10.7,1.8,14.3,6.6c0.7,1,3.5,0.2,5,0.8c6.2,2.5,12.3,5.5,18.5,7.9
		c4.9,1.9,10,3.9,15.2,4.3c8.6,0.7,17.4,1,25.8-0.1c6.7-0.9,13.2-3.7,19.5-6.4c7.4-3,12.7-15,10.1-22.6c-3.1-8.9-6-18-10.3-26.4
		c-2.7-5.2-7.2-9.7-11.6-13.8c-11.5-10.4-23.7-20-34.9-30.8c-5.9-5.7-10.2-13.2-15.1-20c-0.7-1-0.4-2.6-0.7-3.8
		c-2-7.5-4.1-15.1-6-22.6c-0.3-1.1-0.4-2.4,0-3.4c4.1-11.3,7.5-23,12.7-33.8c3.3-6.8,8.7-12.6,16.9-15.5c7.9-2.8,15.7-4.2,24-5.4
		c10.7-1.5,18.9,2.2,27.8,6.2c8.3,3.7,15.4,8.6,21.9,14.7c4.8,4.4,9.9,8.5,14,13.5c2.4,2.9,3.5,7.3,4.2,11.1c0.2,1.5-2.3,3.7-4,5.2
		c-4,3.6-8.8,3.8-11.6-0.5c-3.8-5.7-9.9-8.2-14.9-12c-10.3-8-21.6-14.5-34.4-17.6c-3.3-0.8-7.2,0.6-10.7,1.3c-2,0.4-4.2,1-5.8,2.3
		c-8.4,6.3-15.1,13.3-16.8,24.9c-0.9,5.8,2.3,9.3,2.9,14c1.6,11.7,10.8,18.4,19.3,25.3c7.5,6.1,15.1,11.9,22.2,18.4
		c5.2,4.7,9.5,10.3,14.2,15.5c2.5,2.8,5,5.7,7.8,8.2c7.5,6.8,10.4,16.2,14.4,25.1c3.8,8.4,2.8,17,2.5,25.5c-0.2,5.1-3,10.3-5.7,14.9
		c-3.7,6.4-8.3,12.2-12.5,18.3C118.2,302.6,104.3,304.4,88.5,305.6z"/>
</g>
</svg>
