<?xml version="1.0" encoding="utf-8"?>
<!-- Generator: Adobe Illustrator 21.0.2, SVG Export Plug-In . SVG Version: 6.00 Build 0)  -->
<svg version="1.1" id="Layer_1" xmlns="http://www.w3.org/2000/svg" xmlns:xlink="http://www.w3.org/1999/xlink" x="0px" y="0px"
	 viewBox="0 0 747.3 352" style="enable-background:new 0 0 747.3 352;" xml:space="preserve">
<g>
	<path d="M259.8,178c-0.6,7.7-1,15-1.8,22.1c-0.5,4.7-1.7,9.3-2.7,13.9c-0.5,2.6-1,5.2-1.8,7.7c-2,6.1-4.5,12.2-6.4,18.3
		c-3.6,11.7-10.8,21.5-16.3,32.2c-4.2,8.2-10.9,14.3-17.5,19.9C200.6,303,187,312.7,169.6,316c-7.4,1.4-14.2,6.3-21.3,9.6
		c-1,0.5-1.9,1.5-2.9,1.6c-18.7,2.4-37.2,4-56.1-1.1c-12.3-3.4-23.4-9.7-35.6-12.9c-12.7-3.4-19.9-13-26.3-22.4
		c-8.3-12.2-15.4-25.6-21.2-39.2c-3.3-7.8-5.1-16.6-4.4-25.7c0.6-7.7-0.6-15.5-1-23.2c-0.4-7.3-1.2-14.7-0.9-22
		c0.2-4.8,2.1-9.6,3.1-14.4c1.1-5.3,1.8-10.7,3.1-16c1.5-6.2,3.5-12.3,5.4-18.5c1.5-4.7,3.1-9.2,4.7-13.8c0.4-1.2,0.9-2.6,1.7-3.5
		c7.1-7.5,9.6-17.6,14-26.5c5.5-11,12.1-20.9,20.3-29.9c3.2-3.5,5.9-7.5,9.2-10.9c5.8-6.1,11.5-12.2,17.8-17.7
		c3.8-3.3,8.7-5.3,13.1-7.9c4.2-2.5,8.4-5,12.7-7.3c2-1,4.3-1.4,6.3-2.3c3.8-1.7,7.8-3.1,11.3-5.3c5.4-3.4,10.9-4.7,17.4-4.6
		c10.7,0.1,21.5-0.7,32.2-1.8c9.5-1,18.1,1.3,26.4,5c10.7,4.7,21.3,9.5,31.4,15.3c8.2,4.7,16,10.4,23,16.7
		c5.7,5.1,10.1,11.6,14.6,17.8c1.9,2.6,1.2,5.7-1.9,7.6c-4.9,3.1-9.5,7.1-14.8,9.4c-5.7,2.5-9.5,0.3-12.7-5.2
		c-0.6-1-1.4-1.9-2.3-2.7c-4.7-4.4-9.2-9.1-14.1-13.2c-9.6-7.9-19.6-14.6-32.2-17.9c-11.3-2.9-21.2,0.8-31.6,2
		c-5.8,0.7-11.5,1.8-17.2,2.6c-9.2,1.3-18.1,3-26.2,8.4c-4.3,2.9-9.6,4-14.4,6.2c-9.7,4.5-17,11.8-23.6,20
		c-5,6.2-10.3,12.2-14.8,18.7c-4.9,6.9-9,14.4-13.7,21.4c-3.1,4.6-6.9,8.8-9.9,13.5c-2.3,3.6-4.6,7.5-5.8,11.6
		c-2.6,9.6-4.7,19.3-6.5,29c-1.6,8.5-4.3,17.3-3.6,25.7c1.2,14.3-1.9,29.1,3.1,43c1.4,4,3.6,7.7,5.9,11.3c3.5,5.6,6.9,11.2,11,16.2
		c4,5,8.5,9.8,13.4,14c5.7,4.9,12.1,9,18.2,13.5c1.1,0.8,1.8,2,3,3.3c1.4,0.4,3.4,0.8,5.3,1.6c9.6,4.2,19.6,7.1,30.1,8.6
		c4.5,0.6,8.6,4,13.6,2.4c0.6-0.2,1.2-0.3,1.7-1.1c-1.4-0.2-2.7-0.4-5.5-0.8c8.6-2.9,16.1-5.1,23.3-7.8c10.3-3.9,20.3-8.3,30.5-12.4
		c8.2-3.2,15-8.7,22.3-13.4c13.8-8.7,19.2-22.4,26.6-35.4c4.8-8.5,7.5-17.5,11.2-26.3c0.2-0.5,0.4-0.9,0.6-1.4
		c2.3-7.7,0.6-9.5-7.5-10c-10.1-0.6-20.1-2-30.1-2.7c-7.7-0.5-15.4-0.2-23.1-0.8c-8.2-0.6-16.4-2-24.6-2.8c-6.7-0.7-13.6-0.8-20.2-2
		c-6.3-1.1-12.4-3-18.4-5.1c-2.9-1-3.9-3.4-2.2-6.4c0.6-1.1,1.2-2.5,1.3-3.7c0.1-4.6,3.1-5.5,6.7-5.3c10.7,0.5,21.3,1.3,32,1.8
		c14.9,0.7,29.8,1.1,44.7,2.1c13.2,0.9,26.3,2.3,40,3.6c-3.3,0.2-6.1,0.3-8.9,0.5c0,0.4,0,0.9,0,1.3C237.4,178,248.1,178,259.8,178z
		"/>
	<path d="M621.2,312.2c-5.9,0.4-11.9,1.5-17.8,1c-8.3-0.7-16.6-2.2-24.7-4.3c-6.9-1.8-13.9-4.3-20.2-7.6
		c-8.7-4.5-16.8-10.1-25.1-15.3c-10-6.3-13.1-16.9-17.4-27.1c-4.8-11.1-7.3-22.6-8.8-34.4c-0.6-5.1,0.5-10.5,1-15.8
		c0.6-7.2,1.2-14.4,2.2-21.6c1.5-11,2.9-22.1,5.2-33c1.6-7.3,4.7-14.3,7.1-21.5c1.5-4.3,2.6-8.8,4.3-13c2.3-5.9,4.5-12.1,7.7-17.6
		c6.1-10.4,12.8-20.3,19.3-30.5c2.9-4.5,5-10,8.8-13.4c8-7.2,15.5-15.2,25.9-19.7c11.9-5.2,24-6.4,36.7-7.4
		c15.1-1.2,29.9,0.3,44.2,3.8c10.3,2.6,20.7,6.1,29.8,12.6c9.2,6.6,18.5,12.9,25.3,21.9c10.8,14.1,19,29.6,21.2,47.6
		c0.9,7.9,1.8,15.9,1.3,23.8c-0.5,8.8-2.4,17.5-4.1,26.2c-1.9,9.6-3.9,19.2-6.5,28.6c-2.9,10.6-6.2,21.1-10,31.3
		c-2.2,5.8-5.9,11-9,16.4c-3.3,5.7-6.5,11.4-10.2,16.9c-5.1,7.7-10.1,15.4-18.4,20.5c-5.4,3.4-10,8.2-15.3,11.7
		c-5.5,3.6-11.6,6.2-17.3,9.4c-9.1,5.2-19.3,7.2-29.2,10.2c-1.9,0.6-4,0.3-6,0.4C621.2,312.3,621.2,312.3,621.2,312.2z M688.4,64.3
		c-2.8-0.8-5.2-1.3-7.5-2.2c-2.8-1.1-5.3-2.6-8.1-3.7c-6.9-2.7-13.9-4.9-21.4-5.2c-5.2-0.2-10.5-1.6-15.5-0.7
		c-17.1,3-32.9,9.6-47.7,18.8c-9,5.6-16.1,13-21.6,21.9c-3.4,5.5-4.7,11.6-6.4,17.8c-2.2,7.7-6.1,14.9-9.8,22
		c-6.6,12.4-10.3,25.5-11.5,39.4c-0.1,1.3-0.4,2.6-0.7,3.9c-1.5,6.8-3.7,13.6-4.5,20.6c-1.7,14.5-1.4,29,1.6,43.3
		c1.3,6.1,2,12.6,4.5,18.2c4.9,11.3,12.6,20.5,23.9,26.2c10.4,5.3,20.9,10.6,33.2,9.2c3.3-0.4,6.6-0.5,9.9-0.8
		c7.9-0.8,16-1.1,23.6-2.9c5.5-1.3,10.5-4.8,15.7-7.4c3.4-1.7,6.6-3.7,10.1-5.1c7.1-2.8,22.1-14.7,26.4-20.7
		c3.7-5.3,8.1-10.1,11.9-15.3c4-5.7,8.2-11.3,11.3-17.5c2.6-5.3,6.1-10.4,6.3-16.8c0-1.1,2-2.2,2.4-2.7c0.4-2.8,0.6-4.8,0.9-6.8
		c0.6-3.5,1.3-6.9,1.7-10.4c0.6-5.2,0.6-10.5,1.3-15.7c1.5-10.4,3.2-20.8,2.1-31.4c-0.8-7.2-1.6-14.5-2.3-21.7
		c-0.4-3.4-1.9-7.2-0.8-10.1c1.8-4.7-0.5-7.4-2.7-10.6c-1-1.5-2.1-3-2.8-4.7c-4.1-10.5-9.9-19.6-20-25.4
		C690.4,66.9,689.3,65.2,688.4,64.3z"/>
	<path d="M435.8,352c-4.1-0.2-5.1-2.2-6.9-5.7c-4.6-8.8-4.3-18.4-6.7-27.5c-1.3-5.1-0.6-10.8-0.7-16.2c-0.1-7-0.4-14.1-0.1-21.1
		c0.2-6.9,1.5-13.8,1.4-20.7c-0.1-4.7-1.6-9.5-2.9-14.1c-0.2-0.8-2.4-1.3-3.7-1.4c-16.2-0.3-32.5-0.4-48.7-0.6
		c-12.4-0.1-24.8-0.3-37.1-0.3c-5.9,0-10.5,1.7-13.4,7.9c-2.7,5.7-7.3,10.5-10.8,15.9c-4.4,6.9-8.5,14-12.9,21
		c-3.9,6.1-8,12-11.9,18c-4.6,7-9.3,13.8-13.6,21c-2.2,3.6-4.1,4.4-7.5,2c-1.3-1-3.1-1.7-3.9-3c-1.3-2.1-3.1-4.8-2.6-6.8
		c0.9-3.7,2.9-7.4,5-10.6c3.7-5.7,8.3-10.8,11.8-16.6c4.5-7.4,8.2-15.3,12.5-22.9c2.2-4,5.3-7.5,7.5-11.4
		c4.6-8.3,8.7-16.9,13.4-25.2c2.9-5.1,6.5-9.7,9.6-14.7c3.2-5.3,5.9-10.9,9.1-16.3c4.7-7.8,9.6-15.5,14.4-23.2
		c5.7-9.3,11.4-18.5,16.8-27.9c5.4-9.3,10.5-18.7,15.6-28.1c3.8-7.1,7.5-14.2,11.2-21.3c1.9-3.5,3.5-7.2,5.6-10.5
		c7.8-12.4,15.8-24.7,23.7-37c3.2-5,5.6-10.9,9.7-14.9c5.9-5.7,7.4-13,10-20.1c1.8-4.8,6.5-2.7,9.8-3.9c0.6-0.2,3.3,3,3.8,5
		c2.5,9.5,5.3,19,6.5,28.8c1,8.1-0.4,16.5-0.5,24.8c-0.2,17.7,0,35.5-0.3,53.2c-0.1,8.4-1.3,16.7-1.5,25.1
		c-0.2,6.9,0.5,13.9,0.3,20.8c-0.1,4.6-0.8,9.1-1.3,13.7c-0.1,0.5-0.4,1-0.3,1.4c3.2,14.2,0.9,28.6,2.1,42.9
		c1.1,12.9,2.6,25.9,2.4,38.8c-0.2,16.2-2.2,32.4-3,48.7c-0.4,8.2,0,16.4,0.1,24.6c0,2.8-0.2,5.2-3.9,5.7
		C441.2,349.6,438.5,351,435.8,352z M410.4,227.4c8.9,0,11.9-2,11.6-8c-0.3-7.5-1.1-15-1.6-22.4c-0.4-6.4-1-12.9-0.7-19.4
		c0.4-10.8,1.4-21.6,2.1-32.4c1-14,2-28.1,2.9-42.1c0.7-11.4,1.1-22.8,1.4-34.2c0-1.2-1.2-2.4-1.8-3.6c-1.2,0.9-2.8,1.5-3.5,2.7
		c-4.1,7-8.1,14-11.9,21.1c-5.8,11-11.5,22-16.8,33.2c-3.6,7.6-8.6,14.5-11.4,22.8c-2.4,7.4-8.2,13.6-12.4,20.4
		c-5.9,9.6-12.7,18.7-16.6,29.5c-0.2,0.6-0.4,1.3-0.8,1.8c-5.3,8-10.8,16-15.9,24.1c-0.6,1,0.2,4.5,0.9,4.6c5.3,1.1,11,3,16,2
		c5.5-1.1,10.9-1.5,16.3-1.4C382.3,226.4,396.3,227,410.4,227.4z"/>
</g>
</svg>
